<svg xmlns="http://www.w3.org/2000/svg" viewBox="0 0 841.9 595.3">
  <g fill="#61DAFB">
    <path d="M666.3 296.5c0 34.5-28 62.5-62.5 62.5s-62.5-28-62.5-62.5 28-62.5 62.5-62.5 62.5 28 62.5 62.5zM667.3 369.5c-14.8 24.4-33.6 46.3-55.8 64.4-22.4 18.2-47.2 33.1-73.8 44.1-26.8 11-54.4 18.6-82.2 22.4s-56.8 5.2-84.4 3.5c-27.8-1.8-55.2-6.2-82.2-13.2s-52.8-15.4-78.1-26.4c-25.5-11-49.5-25.2-72.2-42.6s-42.5-36.6-60.3-58.4-33.3-44.7-45.6-69.3c-12.3-24.7-22-50.3-29-76.4-7.2-26.2-11.2-52.9-12.1-79.6-.9-26.9.9-53.6 5.2-79.7 4.5-26.5 12.5-52.4 23.8-77.1 11.6-25.1 26.8-48.7 44.7-70.5 18.2-22 39.2-41.2 61.7-57.3 22.9-16.4 47.5-29.9 73.6-40.1 26.5-10.4 53.7-18 81.2-22.3 27.8-4.5 55.8-4.5 83.6-.1 27.9 4.4 55.3 12.6 82.3 24.7 27 12.2 52.6 28.2 76.8 47.8s46.3 41.4 66.6 65.6c20.6 24.5 37.7 51.5 51 79.9 13.3 28.6 22.9 58.6 28.7 88.7 5.9 30.3 8.1 60.9 7.4 91.5-.7 30.8-4.5 61.1-11.6 91z"/>
  </g>
</svg>

